<svg xmlns="http://www.w3.org/2000/svg" height="1200" width="1600" version="1.1" xmlns:xlink="http://www.w3.org/1999/xlink" xmlns:svgjs="http://svgjs.com/svgjs"><rect fill="transparent" width="1600" height="1200"></rect><g><path d="M1326.67 278.5L1436.37 240.73" stroke="#000000" stroke-width="4" stroke-linecap="round" stroke-linejoin="round" opacity="1" fill="none"></path><path d="M1276.59 253.61L1306.7 180.38" stroke="#000000" stroke-width="4" stroke-linecap="round" stroke-linejoin="round" opacity="1" fill="none"></path></g><g><path d="M822.7 565.56L914.13 1006.57" stroke="#000000" stroke-width="4" stroke-linecap="round" stroke-linejoin="round" opacity="1" fill="none"></path><path d="M839.38 632.1H1042.82" stroke="#000000" stroke-width="4" stroke-linecap="round" stroke-linejoin="round" opacity="1" fill="none"></path><path d="M860.07 734.8H1063.51" stroke="#000000" stroke-width="4" stroke-linecap="round" stroke-linejoin="round" opacity="1" fill="none"></path><path d="M880.76 837.33L1084.19 837.33" stroke="#000000" stroke-width="4" stroke-linecap="round" stroke-linejoin="round" opacity="1" fill="none"></path><path d="M901.44 940.03H1104.88" stroke="#000000" stroke-width="4" stroke-linecap="round" stroke-linejoin="round" opacity="1" fill="none"></path><path d="M1028.42 565.56L1119.85 1006.57" stroke="#000000" stroke-width="4" stroke-linecap="round" stroke-linejoin="round" opacity="1" fill="none"></path><path d="M1028.42 565.56L936.99 1006.57" stroke="#000000" stroke-width="4" stroke-linecap="round" stroke-linejoin="round" opacity="1" fill="none"></path><path d="M822.7 565.56L731.27 1006.57" stroke="#000000" stroke-width="4" stroke-linecap="round" stroke-linejoin="round" opacity="1" fill="none"></path></g><g><path d="M749.02 414.33C814.09 377.08 836.64 294.13 799.38 229.06 762.13 163.98 679.19 141.44 614.11 178.69 549.04 215.95 526.49 298.89 563.75 363.97 601 429.04 683.94 451.59 749.02 414.33Z" fill="#f4ee7c" opacity="1" stroke-width="4" stroke="#000000"></path><path d="M738.8 341.97L724.19 323.18C712.37 307.85 690.86 303.55 674.08 313.16L682.93 308.09C698.25 299.12 703.21 279.46 694.32 264.29 685.65 248.78 666.27 243.26 650.77 251.93L689.69 229.65" stroke="#000000" stroke-width="4" stroke-linecap="round" stroke-linejoin="round" opacity="1" fill="none"></path><path d="M705.68 257.58L641.89 294.1" stroke="#000000" stroke-width="4" stroke-linecap="round" stroke-linejoin="round" opacity="1" fill="none"></path></g><g><path d="M244.15 540.85C237.21 542.79 231.4 547.46 228.01 553.92L221.08 567.15 214.14 553.92C210.75 547.46 204.94 542.79 198 540.85 174.61 534.23 155.57 560.21 168.8 580.54L221.08 660.4 273.35 580.54C286.58 560.21 267.54 534.23 244.15 540.85Z" fill="#ffffff" opacity="1" stroke-width="4" stroke="#000000"></path></g><g><path d="M816.02 643.03H516.46V1009.29H816.02V643.03Z" fill="#80dfff" opacity="1" stroke-width="4" stroke="#000000"></path><path d="M523.96 643.03H341.15V1009.29H523.96V643.03Z" fill="#04c0ff" opacity="1" stroke-width="4" stroke="#000000"></path><path d="M523.96 1009.29H341.15V895.25L523.96 969.81V1009.29Z" fill="#80dfff00" opacity="0" stroke-width="4" stroke="#ffffff00"></path><path d="M342.65 826.16H813.77" stroke="#000000" stroke-width="4" stroke-linecap="round" stroke-linejoin="round" opacity="1" fill="none"></path><path d="M669.62 645.01V1009.29" stroke="#000000" stroke-width="4" stroke-linecap="round" stroke-linejoin="round" opacity="1" fill="none"></path><path d="M670.56 826.38L581.4 784.49C565.26 776.82 557.37 755.32 563.94 736.46 565.26 732.73 566.95 729.44 569.01 726.37 580.27 710.8 600.17 708.83 613.5 721.99 616.12 724.62 618.19 727.47 620.06 730.76L670.56 826.38Z" stroke="#000000" stroke-width="4" stroke-linecap="round" stroke-linejoin="round" opacity="1" fill="none"></path><path d="M670.18 826.38L759.34 784.27C775.48 776.6 783.36 755.1 776.79 736.24 775.48 732.51 773.79 729.22 771.72 726.15 760.46 710.58 740.57 708.61 727.24 721.77 724.61 724.4 722.55 727.25 720.67 730.54L670.18 826.38Z" stroke="#000000" stroke-width="4" stroke-linecap="round" stroke-linejoin="round" opacity="1" fill="none"></path><path d="M670.37 826.38L737 915.86" stroke="#000000" stroke-width="4" stroke-linecap="round" stroke-linejoin="round" opacity="1" fill="none"></path><path d="M669.8 826.38L603.17 915.86" stroke="#000000" stroke-width="4" stroke-linecap="round" stroke-linejoin="round" opacity="1" fill="none"></path></g><g><path d="M1394.6 679.73C1388.59 681.41 1383.56 685.46 1380.62 691.05L1374.62 702.51 1368.61 691.05C1365.67 685.46 1360.64 681.41 1354.64 679.73 1334.38 674 1317.89 696.5 1329.35 714.1L1374.62 783.26 1419.89 714.1C1431.34 696.5 1414.86 674 1394.6 679.73Z" fill="#ffffff" opacity="1" stroke-width="4" stroke="#000000"></path></g><g><path d="M1186.94 902.66C1176.7 875.01 1151.55 839.96 1129.25 808.78 1125.72 803.77 1122.08 798.88 1118.66 793.99L1118.44 793.76 1221.65 768.84 1226.31 771.11C1230.86 777.49 1234.39 782.95 1238.03 788.75 1247.93 804.68 1256.81 821.18 1264.43 838.37 1268.19 846.9 1271.72 855.32 1275.13 864.31L1267.05 927.35 1186.94 902.66Z" fill="#d6c79f" opacity="1" stroke-width="4" stroke="#000000"></path><path d="M1143.47 828.69C1138.69 821.98 1133.91 815.27 1129.25 808.67 1125.72 803.66 1124.12 801.5 1120.6 796.6L1118.55 793.65 1210.84 766.79 1211.06 767.24C1191.72 777.71 1174.31 791.48 1159.63 807.76 1148.93 819.7 1144.04 828.58 1143.93 828.69L1143.7 829.04 1143.47 828.69Z" fill="#d6c79f00" opacity="0" stroke-width="4" stroke="#ffffff00"></path><path d="M986.66 302.74C983.13 303.88 979.38 304.44 975.62 304.33 965.38 304.33 956.73 300.8 952.52 294.89 945.58 285.44 945.47 274.4 951.84 254.38 951.16 253.47 946.26 247.21 947.18 243.22 947.74 240.95 951.16 239.24 957.19 238.44L957.76 236.51C960.94 226.95 963.9 218.53 967.43 211.59 972.44 201.8 987 204.31 998.38 199.98 1005.89 197.02 1005.44 196.68 1013.4 196.8 1028.77 196.8 1034.8 193.95 1044.92 203.05 1061.08 217.62 1058.81 241.97 1055.96 256.88L1053.35 258.81C1051.98 267.58 1054.6 296.02 1051.07 313.55V313.78L987.69 317.3 985.41 310.48 986.66 302.74Z" fill="#d6c79f" opacity="1" stroke-width="4" stroke="#000000"></path><path d="M986.66 302.74L995.42 299.21C995.77 299.1 995.99 298.98 996.33 298.98 997.02 298.98 997.7 299.32 998.04 299.89 998.38 300.46 998.5 301.14 998.15 301.83L992.35 315.03 985.41 310.48 986.66 302.74Z" fill="#d6c79f00" opacity="0" stroke-width="4" stroke="#ffffff00"></path><path d="M979.38 908.92C979.04 900.16 978.01 892.87 977.56 889.69 975.4 874.44 972.78 855.78 969.37 832.9L991.21 646.28 1066.66 801.72C1068.59 810.37 1071.55 825.39 1072.69 833.25 1075.53 851.79 1077.01 870.46 1077.24 889.23 1077.24 895.6 1077.36 902.09 1077.13 908.69L1040.26 974.01 979.38 908.92Z" fill="#d6c79f" opacity="1" stroke-width="4" stroke="#000000"></path><path d="M983.25 771.8L990.64 657.32C990.87 654.36 994.85 653.56 996.11 656.18L1066.55 801.5C1066.66 801.72 1066.77 801.95 1066.77 802.18 1067.23 804.23 1067.68 806.62 1068.14 809.23 1069.05 813.56 1069.96 818.45 1070.76 822.78 1070.98 823.8 1070.53 824.82 1069.73 825.51L1046.86 844.28C1045.61 845.31 1043.79 845.08 1042.76 843.94L983.7 773.96C983.36 773.28 983.13 772.48 983.25 771.8Z" fill="#d6c79f00" opacity="0" stroke-width="4" stroke="#ffffff00"></path><path d="M930.22 991.65L929.65 990.51C931.81 987.44 934.2 984.82 937.05 982.54 938.53 981.41 940.23 979.93 942.28 978.33 950.02 972.19 960.6 963.77 967.77 956.26 976.31 947.15 980.29 930.76 979.38 908.91V908.68H1000.54C1009.08 908.68 1016.93 913.35 1021.03 920.74L1038.89 953.41C1039.01 953.53 1039.12 953.53 1039.12 953.41L1043.79 927.91C1045.83 916.87 1055.51 908.79 1066.77 908.79H1077.01V909.02C1076.22 936.56 1073.37 963.65 1068.14 990.62 1068.14 990.62 1068.14 990.62 1068.14 990.74L1067.34 991.65H1067.23 930.22Z" fill="#f4ee7c" opacity="1" stroke-width="4" stroke="#000000"></path><path d="M803.11 390.36C798.22 380.57 795.72 373.75 795.26 372.72 793.89 372.38 781.95 369.42 771.59 354.29 771.02 355.42 768.86 358.84 764.99 358.84 762.26 358.84 759.3 357.25 756 353.95 748.15 346.09 747.13 340.52 747.69 337.22 748.04 334.83 749.4 332.89 751.45 331.76 749.97 328.11 749.86 324.93 751.11 322.2 752.02 320.15 753.73 318.44 755.89 317.42 752.13 309.68 757.71 304.44 759.07 303.31 757.03 302.28 755.2 301.26 753.38 300.23 742.35 294.43 735.18 290.68 735.18 285.67 735.18 283.39 736.66 280.66 743.71 280.66 751.34 280.66 763.63 284.08 776.6 289.77 790.25 295.68 803.11 303.53 814.61 312.98 824.73 321.63 837.14 333.69 852.16 349.39L852.04 351.67 805.62 391.16 803.11 390.36Z" fill="#d6c79f" opacity="1" stroke-width="4" stroke="#000000"></path><path d="M1096.13 532.72C1083.5 513.83 1069.85 504.04 1068.82 503.24L962.42 502.45 962.08 501.54 949.34 441.91C945.92 444.53 913.95 469.22 888.12 469.22 887.32 469.22 886.52 469.22 885.73 469.1 868.88 468.08 835.77 456.59 803.23 390.47L803.11 390.36 852.16 349.39 852.27 349.51C869.91 368.06 884.93 385.24 886.75 387.29 929.08 331.76 963.68 323.45 980.52 323.45 980.97 323.45 981.43 323.45 981.77 323.45H982.45C982.57 323.45 982.68 323.45 982.79 323.45L985.41 310.48H1052.89C1052.89 310.48 1051.41 317.87 1051.07 319.47 1053.57 319.81 1074.51 323.45 1088.96 339.38 1095.34 346.21 1117.52 355.2 1126.29 377.73 1131.64 391.16 1123.56 414.03 1127.08 426.55 1129.93 436.67 1132.09 446.23 1133.34 454.54 1138.92 490.04 1118.89 520.65 1096.36 532.6L1096.13 532.72Z" fill="#80dfff" opacity="1" stroke-width="4" stroke="#000000"></path><path d="M1068.82 503.24L1068.93 501.54 1080.2 436.9C1089.42 440.2 1091.12 451.81 1092.95 464.21 1094.42 473.88 1095.9 483.78 1100.8 491.64 1109.79 506.09 1120.37 510.64 1120.37 510.64 1113.77 520.08 1105.35 527.82 1096.47 532.49 1096.47 532.49 1069.05 503.36 1068.82 503.24Z" fill="#80dfff00" opacity="0" stroke-width="4" stroke="#ffffff00"></path><path d="M1130.27 426.77C1128.56 426.77 1127.2 426.55 1127.2 426.55 1127.2 426.55 1124.69 418.47 1124.01 416.53 1117.18 397.87 1115.02 390.25 1103.07 364.07 1094.2 368.4 1081.11 370.45 1071.21 370.33 1057.9 370.22 1044.7 367.71 1033.54 360.55 1024.1 354.63 1012.15 342.45 1009.08 317.42 1007.94 308.2 1008.17 298.87 1009.53 289.77L1009.65 289.65C1009.65 289.65 1040.14 275.88 1033.43 255.74 1031.72 250.51 1027.17 247.78 1020.12 247.78 1009.76 247.78 997.13 253.58 997.13 253.58 997.02 253.47 984.39 238.33 993.83 222.97 994.06 222.63 993.72 222.17 993.38 222.29 990.42 222.97 987.57 223.42 984.5 223.42 970.05 223.42 967.43 211.7 967.43 211.7V211.59C972.89 200.89 979.72 194.52 990.08 190.65 997.59 187.69 1005.55 186.21 1013.52 186.33 1028.88 186.33 1043.56 191.45 1053.8 200.55 1069.16 214.43 1066.2 240.15 1062.79 258.02L1062.68 258.36C1068.37 257.56 1074.06 257.11 1079.75 257.11 1099.55 257.11 1134.82 262.11 1148.82 295.46 1155.99 312.75 1158.04 338.47 1142.1 359.18 1144.84 360.09 1164.98 367.37 1168.16 383.19 1170.44 393.32 1167.82 403.9 1161.22 411.87 1153.71 420.74 1141.31 426.77 1130.27 426.77Z" fill="#30242a" opacity="1" stroke-width="4" stroke="#000000"></path><path d="M969.37 832.9C967.89 822.89 966.41 812.99 964.93 803.43 961.74 781.81 958.78 761.78 957.3 751.09 941.83 638.77 955.48 527.48 962.08 501.76V501.54L1068.93 501.54H1069.05C1108.65 535.22 1122.53 576.07 1142.79 633.42 1152.8 661.64 1162.02 679.28 1178.97 708.07 1186.37 720.59 1195.02 731.06 1203.44 741.19 1207.99 746.65 1212.2 751.77 1216.07 757 1219.94 762.12 1223.35 766.68 1226.43 771.11L1043.67 815.15C1043.56 815.15 1043.56 815.15 1043.56 815.04L997.81 683.26C997.81 683.15 997.59 683.15 997.59 683.26L998.15 825.96C998.15 826.08 998.15 826.08 998.04 826.08L969.37 832.9Z" fill="#0099ff" opacity="1" stroke-width="4" stroke="#000000"></path><path d="M997.36 683.26L983.36 501.54" stroke="#000000" stroke-width="4" stroke-linecap="round" stroke-linejoin="round" opacity="1" fill="none"></path><path d="M923.73 1009.51V1009.28C923.62 1002.57 925.67 996.08 929.54 990.62L929.65 990.51H1068.25V990.74C1067.11 997 1065.52 1003.25 1063.7 1009.28L923.73 1009.51Z" fill="#474747" opacity="1" stroke-width="4" stroke="#000000"></path><path d="M1170.89 1009.4C1168.16 1003.25 1167.37 996.31 1168.85 989.6L1169.53 988.92 1295.16 934.28 1296.07 934.74C1297.43 941 1298.57 947.49 1299.37 953.98V954.09L1170.89 1009.4Z" fill="#474747" opacity="1" stroke-width="4" stroke="#000000"></path><path d="M1169.3 989.37C1169.07 989.48 1168.85 989.26 1168.96 989.03 1169.76 985.73 1170.89 982.43 1172.49 979.36 1173.17 977.99 1174.08 976.28 1174.99 974.46 1179.43 965.93 1186.26 953.07 1190.24 942.94 1194.22 932.59 1193.2 919.5 1187.05 902.77 1187.05 902.66 1187.05 902.55 1187.17 902.43L1207.42 893.44C1214.93 890.14 1223.69 891.17 1230.41 895.95L1258.06 915.75C1258.29 915.86 1258.52 915.75 1258.52 915.52L1254.65 892.76C1252.83 882.06 1258.52 871.48 1268.53 867.16L1275.24 864.2 1275.36 864.43C1284.01 887.18 1290.95 910.63 1296.18 934.41 1296.18 934.52 1296.18 934.64 1296.07 934.75L1169.3 989.37Z" fill="#f4ee7c" opacity="1" stroke-width="4" stroke="#000000"></path><path d="M977.1 937.37L998.27 941.8" stroke="#000000" stroke-width="4" stroke-linecap="round" stroke-linejoin="round" opacity="1" fill="none"></path><path d="M971.07 952.05L989.17 965.13" stroke="#000000" stroke-width="4" stroke-linecap="round" stroke-linejoin="round" opacity="1" fill="none"></path><path d="M1039.23 953.3L1033.77 990.51" stroke="#000000" stroke-width="4" stroke-linecap="round" stroke-linejoin="round" opacity="1" fill="none"></path><path d="M1258.4 915.4L1266.25 947.84" stroke="#000000" stroke-width="4" stroke-linecap="round" stroke-linejoin="round" opacity="1" fill="none"></path><path d="M1192.63 928.83L1209.93 930.43" stroke="#000000" stroke-width="4" stroke-linecap="round" stroke-linejoin="round" opacity="1" fill="none"></path><path d="M1190.24 943.06L1207.88 949.77" stroke="#000000" stroke-width="4" stroke-linecap="round" stroke-linejoin="round" opacity="1" fill="none"></path><path d="M1080.2 436.9L1068.93 501.54 962.08 501.54" stroke="#000000" stroke-width="4" stroke-linecap="round" stroke-linejoin="round" opacity="1" fill="none"></path><path d="M1094.99 472.97L1074.4 469.33" stroke="#000000" stroke-width="4" stroke-linecap="round" stroke-linejoin="round" opacity="1" fill="none"></path><path d="M886.75 387.29L875.37 402.42" stroke="#000000" stroke-width="4" stroke-linecap="round" stroke-linejoin="round" opacity="1" fill="none"></path><path d="M949.34 441.91L973.23 419.49" stroke="#000000" stroke-width="4" stroke-linecap="round" stroke-linejoin="round" opacity="1" fill="none"></path><path d="M759.07 303.3C768.4 303.98 778.08 306.37 786.61 310.24" stroke="#000000" stroke-width="4" stroke-linecap="round" stroke-linejoin="round" opacity="1" fill="none"></path><path d="M755.89 317.42C766.93 318.1 780.92 322.77 780.92 322.77" stroke="#000000" stroke-width="4" stroke-linecap="round" stroke-linejoin="round" opacity="1" fill="none"></path><path d="M751.45 331.76C757.71 330.62 771.93 334.49 774.09 336.42" stroke="#000000" stroke-width="4" stroke-linecap="round" stroke-linejoin="round" opacity="1" fill="none"></path><path d="M986.66 302.74C992.35 300.35 995.42 299.21 995.42 299.21" stroke="#000000" stroke-width="4" stroke-linecap="round" stroke-linejoin="round" opacity="1" fill="none"></path><path d="M1011.92 265.87L1003.96 270.42" stroke="#000000" stroke-width="4" stroke-linecap="round" stroke-linejoin="round" opacity="1" fill="none"></path><path d="M1103.07 364.07C1114.45 359.52 1115.48 354.63 1115.48 354.63" stroke="#000000" stroke-width="4" stroke-linecap="round" stroke-linejoin="round" opacity="1" fill="none"></path><path d="M1142.1 359.18C1139.37 362.48 1135.85 365.55 1132.55 368.28" stroke="#000000" stroke-width="4" stroke-linecap="round" stroke-linejoin="round" opacity="1" fill="none"></path><path d="M1062.68 258.35L1058.58 276.1" stroke="#000000" stroke-width="4" stroke-linecap="round" stroke-linejoin="round" opacity="1" fill="none"></path><path d="M968.68 260.18C965.27 264.73 958.44 264.73 958.44 264.73" stroke="#000000" stroke-width="4" stroke-linecap="round" stroke-linejoin="round" opacity="1" fill="none"></path><path d="M969.25 245.39C970.82 245.39 972.1 244.11 972.1 242.54 972.1 240.97 970.82 239.7 969.25 239.7 967.68 239.7 966.41 240.97 966.41 242.54 966.41 244.11 967.68 245.39 969.25 245.39Z" fill="#231f20" opacity="1" stroke-width="4" stroke="#000000"></path><path d="M949.34 441.91L964.02 428.14C964.93 427.46 968 427.11 969.14 427.11 970.73 427.11 972.1 428.82 973.12 430.07 974.14 431.21 974.49 432.8 974.14 434.4 970.62 451.92 957.64 477.18 957.53 477.53L957.08 478.44 949.34 441.91Z" fill="#80dfff00" opacity="0" stroke-width="4" stroke="#ffffff00"></path></g><g><path d="M386.79 539.82C426.29 554.94 470.55 535.17 485.67 495.67 500.78 456.17 481.01 411.9 441.51 396.79 402.01 381.68 357.74 401.44 342.63 440.95 327.52 480.45 347.29 524.71 386.79 539.82Z" fill="#f4ee7c" opacity="1" stroke-width="4" stroke="#000000"></path><path d="M414.73 509.52L417.72 496.44C420.2 485.81 414.39 474.88 404.2 470.98L409.58 473.04C418.97 476.52 429.32 471.67 432.77 462.37 436.45 453.05 431.94 442.62 422.62 438.94L446.24 447.98" stroke="#000000" stroke-width="4" stroke-linecap="round" stroke-linejoin="round" opacity="1" fill="none"></path><path d="M439.76 464.94L401.03 450.12" stroke="#000000" stroke-width="4" stroke-linecap="round" stroke-linejoin="round" opacity="1" fill="none"></path></g><g><path d="M769.48 498.75C766.33 499.63 763.69 501.75 762.15 504.69L759 510.7 755.84 504.69C754.3 501.75 751.66 499.63 748.51 498.75 737.88 495.74 729.23 507.54 735.24 516.78L759 553.07 782.75 516.78C788.76 507.54 780.11 495.74 769.48 498.75Z" fill="#ffffff" opacity="1" stroke-width="4" stroke="#000000"></path></g></svg>